<svg xmlns="http://www.w3.org/2000/svg" width="19.8" height="22.629" viewBox="0 0 19.8 22.629">
  <path id="calendrier" d="M.53,8.486H19.27a.532.532,0,0,1,.53.53V20.507a2.122,2.122,0,0,1-2.121,2.121H2.121A2.122,2.122,0,0,1,0,20.507V9.016A.532.532,0,0,1,.53,8.486ZM19.8,6.541V4.95a2.122,2.122,0,0,0-2.121-2.121H15.557V.53a.532.532,0,0,0-.53-.53H13.259a.532.532,0,0,0-.53.53v2.3H7.071V.53A.532.532,0,0,0,6.541,0H4.773a.532.532,0,0,0-.53.53v2.3H2.121A2.122,2.122,0,0,0,0,4.95V6.541a.532.532,0,0,0,.53.53H19.27A.532.532,0,0,0,19.8,6.541Z" fill="#107ec2"/>
</svg>
