<svg xmlns="http://www.w3.org/2000/svg" width="15.75" height="21" viewBox="0 0 15.75 21">
  <path id="end" d="M14.766,21H.984A.984.984,0,0,1,0,20.016v-.656a.984.984,0,0,1,.984-.984c0-3.731,2.092-6.88,4.956-7.875C3.077,9.5.984,6.356.984,2.625A.984.984,0,0,1,0,1.641V.984A.984.984,0,0,1,.984,0H14.766a.984.984,0,0,1,.984.984v.656a.984.984,0,0,1-.984.984c0,3.731-2.092,6.88-4.956,7.875,2.864,1,4.956,4.144,4.956,7.875a.984.984,0,0,1,.984.984v.656A.984.984,0,0,1,14.766,21ZM12.141,2.625H3.609c0,3.177,1.9,5.906,4.266,5.906S12.141,5.8,12.141,2.625Z" fill="#107ec2"/>
</svg>
