<svg xmlns="http://www.w3.org/2000/svg" width="86" height="87" viewBox="0 0 86 87">
  <g id="facturenreglee" transform="translate(-37.959 -38.535)">
    <path id="Path_363" data-name="Path 363" d="M10,0H76A10,10,0,0,1,86,10V77A10,10,0,0,1,76,87H10A10,10,0,0,1,0,77V10A10,10,0,0,1,10,0Z" transform="translate(37.959 38.535)" fill="#cc151a" opacity="0.17"/>
    <g id="Group_59" data-name="Group 59" transform="translate(60.872 56.901)">
      <path id="Path_355" data-name="Path 355" d="M401,270.358a2.953,2.953,0,0,1-.851-2.233c.035-6.027.019-12.055.016-18.082,0-3.64-1.807-5.445-5.439-5.449-1.757,0-3.513,0-5.373,0a3.828,3.828,0,0,0-2.529-4.361h-16.6a3.764,3.764,0,0,0-2.448,4.275c-.406.032-.731.081-1.055.083-1.727.007-3.455-.021-5.182.014a4.574,4.574,0,0,0-4.532,4.2,14.812,14.812,0,0,0-.046,1.5q0,17.958,0,35.92c0,3.473.715,4.571,3.815,5.875h32.27a30.773,30.773,0,0,0,5.386-2.1A12.788,12.788,0,0,0,401,270.358Zm-28.84-25.746h12.783v4.2H372.16Zm9.517,43.043a7.533,7.533,0,0,1-.849.1c-6.145.007-12.29-.012-18.433.023-.908.007-1.173-.251-1.171-1.171q.045-18.317,0-36.635c0-.816.194-1.189,1.086-1.164,1.761.051,3.522.014,5.366.014.067.673.083,1.171.17,1.657a3.077,3.077,0,0,0,3.116,2.671q7.545.028,15.091,0a3.232,3.232,0,0,0,3.287-3.045c.037-.376.007-.759.007-1.277,1.992,0,3.9,0,5.811,0,.786,0,.657.583.657,1.07q.007,5.7,0,11.4V266.8c-6.781-1.611-12.3.1-15.716,6.32C377.35,278.134,378.242,283.033,381.677,287.654Zm9.923.106a8.554,8.554,0,0,1-8.717-8.632,8.655,8.655,0,0,1,8.6-8.673,8.765,8.765,0,0,1,8.7,8.621A8.64,8.64,0,0,1,391.6,287.76Z" transform="translate(-356.963 -240.232)" fill="#cc151a"/>
      <path id="Path_356" data-name="Path 356" d="M384.249,290.412l.336,0h.154c-.053,0-.1,0-.154,0C384.472,290.407,384.362,290.409,384.249,290.412Zm-1.427.009c.307.009.613.007.922,0C383.435,290.425,383.129,290.43,382.822,290.421Z" transform="translate(-371.696 -268.819)" fill="#cc151a"/>
      <path id="Path_357" data-name="Path 357" d="M392.112,302.651a2.069,2.069,0,0,1-2.257,2.194q-5.241.031-10.485,0a2.119,2.119,0,1,1-.021-4.223c1.768-.023,3.534-.007,5.3-.007,1.728,0,3.455-.014,5.184,0C391.268,300.639,392.084,301.386,392.112,302.651Z" transform="translate(-368.417 -274.632)" fill="#cc151a"/>
      <path id="Path_358" data-name="Path 358" d="M420.072,282.533c.014,1.346-.851,2.146-2.406,2.176-1.341.025-2.685,0-4.027,0s-2.685.018-4.029,0a2.173,2.173,0,1,1,.053-4.3q3.972-.024,7.943,0C419.138,280.415,420.056,281.23,420.072,282.533Z" transform="translate(-385.562 -263.114)" fill="#cc151a"/>
      <path id="Path_359" data-name="Path 359" d="M385.005,322.762a2.229,2.229,0,0,1-2.5,2.121c-1.344.014-2.687,0-4.029,0s-2.688.018-4.029,0a2.1,2.1,0,0,1-2.349-2.113,2.142,2.142,0,0,1,2.4-2.185q4.028-.028,8.058,0A2.207,2.207,0,0,1,385.005,322.762Z" transform="translate(-365.588 -286.003)" fill="#cc151a"/>
      <path id="Path_360" data-name="Path 360" d="M385.636,282.484a2.035,2.035,0,0,1-2.026,2.187c-.286.023-.572.03-.86.03q-.284,0-.567-.007l-.127,0c-.148,0-.293-.007-.44-.007-.051,0-.1,0-.152,0h-.154l-.336,0-.5.009c-.309.007-.615.009-.922,0-.141,0-.281-.012-.422-.023a2.107,2.107,0,0,1-2.051-2.187,2.079,2.079,0,0,1,2.047-2.077c1.491-.069,2.992-.067,4.486,0A2.049,2.049,0,0,1,385.636,282.484Z" transform="translate(-368.42 -263.093)" fill="#cc151a"/>
      <path id="Path_361" data-name="Path 361" d="M429.241,330c1.522,0,3.045,0,4.568,0a1.2,1.2,0,0,0,1.334-1.177,1.187,1.187,0,0,0-1.294-1.213q-4.644-.01-9.289,0a1.565,1.565,0,0,0-.641.136,1.193,1.193,0,0,0,.549,2.248C426.059,330.011,427.65,330,429.241,330Z" transform="translate(-394.746 -290.014)" fill="#cc151a"/>
    </g>
  </g>
</svg>
