<svg xmlns="http://www.w3.org/2000/svg" width="20.46" height="24.831" viewBox="0 0 20.46 24.831">
  <g id="Group_140" data-name="Group 140" transform="translate(-7.65 -1.12)">
    <path id="Path_386" data-name="Path 386" d="M16.012,33.79a.389.389,0,1,0,.392.392A.392.392,0,0,0,16.012,33.79Z" transform="translate(-3.804 -15.592)" fill="#fff"/>
    <path id="Path_387" data-name="Path 387" d="M28,3.07a.4.4,0,0,0-.282-.115H25.486V1.512a.4.4,0,0,0-.392-.392H8.042a.4.4,0,0,0-.392.392V23.724a.4.4,0,0,0,.392.392h3.779v1.443a.393.393,0,0,0,.392.392h15.5A.383.383,0,0,0,28,25.836a.392.392,0,0,0,.115-.277V3.347A.442.442,0,0,0,28,3.07Zm-.674,22.1H12.6V19.631a.392.392,0,1,0-.784,0v3.7H8.434V1.9H24.707V2.955H12.214a.393.393,0,0,0-.392.392v14.2a.392.392,0,0,0,.784,0V3.739H27.326V25.167Z" transform="translate(0)" fill="#fff"/>
    <path id="Path_388" data-name="Path 388" d="M30.222,12.554h5.923a.392.392,0,0,0,0-.784H30.222a.392.392,0,0,0,0,.784Z" transform="translate(-10.585 -5.083)" fill="#fff"/>
    <path id="Path_389" data-name="Path 389" d="M30.222,17.344h5.923a.392.392,0,0,0,0-.784H30.222a.392.392,0,0,0,0,.784Z" transform="translate(-10.585 -7.369)" fill="#fff"/>
    <path id="Path_390" data-name="Path 390" d="M30.222,22.124h5.923a.392.392,0,0,0,0-.784H30.222a.392.392,0,0,0,0,.784Z" transform="translate(-10.585 -9.65)" fill="#fff"/>
    <path id="Path_391" data-name="Path 391" d="M20.142,26.914H31.334a.392.392,0,1,0,0-.784H20.142a.392.392,0,0,0,0,.784Z" transform="translate(-5.775 -11.936)" fill="#fff"/>
    <path id="Path_392" data-name="Path 392" d="M20.142,31.7H31.334a.392.392,0,1,0,0-.784H20.142a.392.392,0,0,0,0,.784Z" transform="translate(-5.775 -14.222)" fill="#fff"/>
    <path id="Path_393" data-name="Path 393" d="M20.142,36.494h7.6a.392.392,0,0,0,0-.784h-7.6a.392.392,0,0,0,0,.784Z" transform="translate(-5.775 -16.508)" fill="#fff"/>
    <path id="Path_394" data-name="Path 394" d="M20.142,40.894h7.6a.392.392,0,1,0,0-.784h-7.6a.392.392,0,1,0,0,.784Z" transform="translate(-5.775 -18.608)" fill="#fff"/>
    <path id="Path_395" data-name="Path 395" d="M22.313,15.528a.667.667,0,0,1-.669-.669.392.392,0,1,0-.784,0,1.447,1.447,0,0,0,1.061,1.391v.214a.392.392,0,0,0,.784,0V16.25a1.448,1.448,0,0,0-.392-2.844.669.669,0,1,1,.669-.669.392.392,0,1,0,.784,0,1.447,1.447,0,0,0-1.061-1.391v-.214a.392.392,0,0,0-.784,0v.214a1.448,1.448,0,0,0,.392,2.844.669.669,0,1,1,0,1.338Z" transform="translate(-6.304 -4.591)" fill="#fff"/>
  </g>
</svg>
