<svg xmlns="http://www.w3.org/2000/svg" width="30.268" height="24.214" viewBox="0 0 30.268 24.214">
  <path id="Icon_awesome-eye-slash" data-name="Icon awesome-eye-slash" d="M15.134,18.917a6.785,6.785,0,0,1-6.758-6.3L3.415,8.788a15.762,15.762,0,0,0-1.737,2.629,1.53,1.53,0,0,0,0,1.38,15.169,15.169,0,0,0,13.456,8.39,14.69,14.69,0,0,0,3.684-.495l-2.454-1.9a6.816,6.816,0,0,1-1.23.123Zm14.841,2.748-5.228-4.041A15.666,15.666,0,0,0,28.589,12.8a1.53,1.53,0,0,0,0-1.38,15.169,15.169,0,0,0-13.456-8.39A14.573,14.573,0,0,0,8.167,4.81L2.15.159A.757.757,0,0,0,1.088.292l-.928,1.2A.757.757,0,0,0,.292,2.549L28.117,24.054a.757.757,0,0,0,1.062-.133l.929-1.2a.757.757,0,0,0-.133-1.062Zm-8.689-6.716-1.859-1.437a4.481,4.481,0,0,0-5.491-5.766,2.254,2.254,0,0,1,.44,1.334,2.206,2.206,0,0,1-.073.473l-3.481-2.69A6.73,6.73,0,0,1,15.134,5.3a6.806,6.806,0,0,1,6.81,6.81,6.649,6.649,0,0,1-.657,2.843Z" transform="translate(0 0)" fill="rgba(0,0,0,0.5)"/>
</svg>
