<svg xmlns="http://www.w3.org/2000/svg" width="27" height="27" viewBox="0 0 27 27">
  <g id="Group_122" data-name="Group 122" transform="translate(-104 -275)">
    <g id="Ellipse_68" data-name="Ellipse 68" transform="translate(104 275)" fill="none" stroke="#fff" stroke-width="2">
      <circle cx="13.5" cy="13.5" r="13.5" stroke="none"/>
      <circle cx="13.5" cy="13.5" r="12.5" fill="none"/>
    </g>
    <g id="Union_1" data-name="Union 1" transform="translate(2187 2578)" fill="none" stroke-linecap="round" stroke-linejoin="round">
      <path d="M-2072-2282v-5h-5v-5h5v-5h5v5h5v5h-5v5Z" stroke="none"/>
      <path d="M -2068.000244140625 -2282.99951171875 L -2068.000244140625 -2287 C -2068.000244140625 -2287.55224609375 -2067.552490234375 -2288 -2067.000244140625 -2288 L -2063 -2288 L -2063 -2291.000244140625 L -2067.000244140625 -2291.000244140625 C -2067.552490234375 -2291.000244140625 -2068.000244140625 -2291.447998046875 -2068.000244140625 -2292.000244140625 L -2068.000244140625 -2295.999755859375 L -2070.999755859375 -2295.999755859375 L -2070.999755859375 -2292.000244140625 C -2070.999755859375 -2291.447998046875 -2071.447509765625 -2291.000244140625 -2071.999755859375 -2291.000244140625 L -2076.000244140625 -2291.000244140625 L -2076.000244140625 -2288 L -2071.999755859375 -2288 C -2071.447509765625 -2288 -2070.999755859375 -2287.55224609375 -2070.999755859375 -2287 L -2070.999755859375 -2282.99951171875 L -2068.000244140625 -2282.99951171875 M -2067.000244140625 -2281.99951171875 L -2071.999755859375 -2281.99951171875 L -2071.999755859375 -2287 L -2077.000244140625 -2287 L -2077.000244140625 -2292.000244140625 L -2071.999755859375 -2292.000244140625 L -2071.999755859375 -2296.999755859375 L -2067.000244140625 -2296.999755859375 L -2067.000244140625 -2292.000244140625 L -2062 -2292.000244140625 L -2062 -2287 L -2067.000244140625 -2287 L -2067.000244140625 -2281.99951171875 Z" stroke="none" fill="#fff"/>
    </g>
  </g>
</svg>
