<svg xmlns="http://www.w3.org/2000/svg" width="21" height="21" viewBox="0 0 21 21">
  <path id="poids" d="M18.375,2.625H17.309A7.871,7.871,0,1,1,2.625,6.563,7.816,7.816,0,0,1,3.691,2.625H2.625A2.628,2.628,0,0,0,0,5.25V18.375A2.628,2.628,0,0,0,2.625,21h15.75A2.628,2.628,0,0,0,21,18.375V5.25A2.628,2.628,0,0,0,18.375,2.625ZM10.5,13.125A6.563,6.563,0,1,0,3.937,6.563,6.562,6.562,0,0,0,10.5,13.125Zm-.012-6.232,1.377-3.214a.657.657,0,0,1,1.207.516L11.692,7.417a1.633,1.633,0,1,1-1.2-.524Z" fill="#107ec2"/>
</svg>
