<svg xmlns="http://www.w3.org/2000/svg" width="19.402" height="19.402" viewBox="0 0 19.402 19.402">
  <path id="print" d="M16.977,7.276V2.927a1.213,1.213,0,0,0-.355-.858L14.907.355A1.213,1.213,0,0,0,14.049,0H3.638A1.213,1.213,0,0,0,2.425,1.213V7.276A2.425,2.425,0,0,0,0,9.7v4.244a.606.606,0,0,0,.606.606H2.425V18.19A1.213,1.213,0,0,0,3.638,19.4H15.764a1.213,1.213,0,0,0,1.213-1.213V14.552H18.8a.606.606,0,0,0,.606-.606V9.7A2.425,2.425,0,0,0,16.977,7.276Zm-2.425,9.7h-9.7V13.339h9.7Zm0-8.489h-9.7V2.425h7.276V4.244a.606.606,0,0,0,.606.606h1.819Zm1.819,2.728a.909.909,0,1,1,.909-.909A.91.91,0,0,1,16.371,11.217Z" fill="#fff"/>
</svg>
