<svg xmlns="http://www.w3.org/2000/svg" width="87" height="87" viewBox="0 0 87 87">
  <g id="rendezvous" transform="translate(23.109 18.314)">
    <g id="Group_56" data-name="Group 56" transform="translate(0 0)">
      <path id="Path_337" data-name="Path 337" d="M80.893,250.03a14.054,14.054,0,0,0-.042-1.457,4.454,4.454,0,0,0-2.9-3.811,4.579,4.579,0,0,0-1.5-.276c-.113,0-.226,0-.343,0s-.218,0-.327,0c-1.449-.017-2.9,0-4.356,0-.272,0-.544-.038-.871-.067A3.707,3.707,0,0,0,68.1,240.23H51.946l-.063.025a3.709,3.709,0,0,0-2.4,4.146c-.36.025-.658.071-.955.071-1.416.008-2.835-.013-4.251,0-.109,0-.218,0-.327,0-.155,0-.31,0-.465,0a4.567,4.567,0,0,0-2.421.733l-.113.075a3.807,3.807,0,0,0-1.416,1.658c-.021.042-.042.088-.063.13s-.038.1-.059.147a4.7,4.7,0,0,0-.339,1.344l-.013.163c-.038.427-.033.859-.033,1.294q-.006,13.663,0,27.335v7.626a9.607,9.607,0,0,0,.285,2.689c.431,1.424,1.407,2.182,3.43,3.032H77.2c1.926-.812,2.9-1.545,3.355-2.856a8.86,8.86,0,0,0,.343-2.865v-8.7Q80.9,263.157,80.893,250.03Zm-27.071-5.537H66.164v4.087H53.822Zm22.942,40.946c-.008.842-.276,1.081-1.135,1.072-4.456-.025-8.912-.021-13.368-.021h-4.5c-4.481,0-8.958,0-13.439.021-.884.008-1.143-.243-1.139-1.139v-.013q.019-7.275.021-14.553.006-10.548-.017-21.095a2.631,2.631,0,0,1,.029-.427v-.008a.7.7,0,0,1,.645-.674h1.382a.1.1,0,0,1,.05,0c1.068.008,2.144,0,3.246,0h.926c.013.1.021.2.025.293a8.711,8.711,0,0,0,.013.951,3.185,3.185,0,0,0,1.579,2.55c.067.038.134.075.2.1a2.073,2.073,0,0,0,.2.088c.092.038.184.067.281.1a2.356,2.356,0,0,0,.3.067c.1.021.205.033.31.046s.209.013.318.013q7.312.025,14.633,0h.033a3.15,3.15,0,0,0,3.2-2.965c.033-.364,0-.737,0-1.244h.859c1.1,0,2.178.013,3.25,0a.119.119,0,0,1,.054,0h1.361c.549.084.678.444.678,1.11q-.013,8.179-.017,16.354v4.661q0,1.583,0,3.162,0,2.594,0,5.18.006,3.154.013,6.3Z" transform="translate(-39.03 -240.23)" fill="#74226b"/>
      <path id="Path_338" data-name="Path 338" d="M75.647,302.847a2.273,2.273,0,0,1-2.478,2.407c-1.2.009-2.4.014-3.607.014-2.634.01-5.268,0-7.9-.014a2.317,2.317,0,0,1-2.526-2.374,2.2,2.2,0,0,1,1.784-2.171,3.43,3.43,0,0,1,.718-.085c1.94-.024,3.88-.009,5.816-.009,1.9,0,3.791-.014,5.688,0C74.717,300.643,75.614,301.459,75.647,302.847Z" transform="translate(-51.293 -275.609)" fill="#74226b"/>
      <path id="Path_339" data-name="Path 339" d="M103.4,282.741c.014,1.473-.935,2.351-2.639,2.384-1.473.028-2.946,0-4.419,0s-2.946.024-4.423,0a2.384,2.384,0,1,1,.061-4.721q4.355-.028,8.714,0C102.372,280.414,103.377,281.31,103.4,282.741Z" transform="translate(-69.353 -263.766)" fill="#74226b"/>
      <path id="Path_340" data-name="Path 340" d="M68.327,322.977a2.38,2.38,0,0,1-2.441,2.313q-.149.014-.3.014c-1.473.014-2.95,0-4.419,0s-2.95.019-4.423,0c-1.614-.028-2.563-.906-2.577-2.318a2.349,2.349,0,0,1,2.639-2.4q3.916-.028,7.836,0c.335,0,.67,0,1.006,0A2.42,2.42,0,0,1,68.327,322.977Z" transform="translate(-48.175 -287.312)" fill="#74226b"/>
      <path id="Path_341" data-name="Path 341" d="M68.538,282.689a2.236,2.236,0,0,1-2.223,2.4c-.316.024-.628.033-.944.033-.208,0-.415,0-.623-.009-.047,0-.094,0-.137,0-.165,0-.321,0-.486,0-.052,0-.109,0-.165,0h-.17c-.123,0-.245,0-.368,0-.184,0-.368,0-.552.009-.34.009-.675.009-1.015,0-.151,0-.307-.014-.463-.024a2.318,2.318,0,0,1-2.252-2.4,2.286,2.286,0,0,1,2.247-2.28c1.638-.076,3.286-.071,4.924,0A2.255,2.255,0,0,1,68.538,282.689Z" transform="translate(-50.984 -263.746)" fill="#74226b"/>
    </g>
    <rect id="Rectangle_221" data-name="Rectangle 221" width="87" height="87" rx="10" transform="translate(-23.109 -18.314)" fill="#74226b" opacity="0.17"/>
  </g>
</svg>
