<svg xmlns="http://www.w3.org/2000/svg" width="15.75" height="21" viewBox="0 0 15.75 21">
  <path id="start" d="M14.766,0H.984A.984.984,0,0,0,0,.984v.656a.984.984,0,0,0,.984.984c0,3.731,2.092,6.88,4.956,7.875C3.077,11.5.984,14.644.984,18.375A.984.984,0,0,0,0,19.359v.656A.984.984,0,0,0,.984,21H14.766a.984.984,0,0,0,.984-.984v-.656a.984.984,0,0,0-.984-.984c0-3.731-2.092-6.88-4.956-7.875,2.864-1,4.956-4.144,4.956-7.875a.984.984,0,0,0,.984-.984V.984A.984.984,0,0,0,14.766,0ZM12.141,18.375H3.609c0-3.177,1.9-5.906,4.266-5.906S12.141,15.2,12.141,18.375Z" fill="#107ec2"/>
</svg>
