<svg xmlns="http://www.w3.org/2000/svg" width="20" height="26" viewBox="0 0 20 26">
  <g id="Group_123" data-name="Group 123" transform="translate(-83.76 -267)">
    <g id="Group_124" data-name="Group 124" transform="translate(84 267)">
      <g id="Union_3" data-name="Union 3" transform="translate(-0.241)" fill="none">
        <path d="M0,26V4.161H4.21V2.08H6.38A3.07,3.07,0,0,1,9.474,0a3.071,3.071,0,0,1,3.094,2.08h2.168V4.161H20V24a2,2,0,0,1-2,2Z" stroke="none"/>
        <path d="M 18 24.75010108947754 C 18.4134407043457 24.75010108947754 18.74979972839355 24.41374015808105 18.74979972839355 24.00030136108398 L 18.74979972839355 5.41070032119751 L 13.48659992218018 5.41070032119751 L 13.48659992218018 3.329900503158569 L 11.58928966522217 3.329900503158569 L 11.35484981536865 2.379170656204224 C 11.21986961364746 1.831770539283752 10.5149097442627 1.250000596046448 9.474299430847168 1.250000596046448 C 8.433690071105957 1.250000596046448 7.728729724884033 1.831770539283752 7.59375 2.379170656204224 L 7.359309673309326 3.329900503158569 L 5.46019983291626 3.329900503158569 L 5.46019983291626 5.41070032119751 L 1.24999988079071 5.41070032119751 L 1.24999988079071 24.75010108947754 L 18 24.75010108947754 M 18 26.00010108947754 L -1.358032193365943e-07 26.00010108947754 L -1.358032193365943e-07 4.16070032119751 L 4.21019983291626 4.16070032119751 L 4.21019983291626 2.079900503158569 L 6.380099773406982 2.079900503158569 C 6.672599792480469 0.8937005400657654 7.946099758148193 5.447387820822769e-07 9.474299430847168 5.447387820822769e-07 C 11.00160026550293 5.447387820822769e-07 12.27600002288818 0.8937005400657654 12.56849956512451 2.079900503158569 L 14.73659992218018 2.079900503158569 L 14.73659992218018 4.16070032119751 L 19.99979972839355 4.16070032119751 L 19.99979972839355 24.00030136108398 C 19.99979972839355 25.10460090637207 19.10429954528809 26.00010108947754 18 26.00010108947754 Z" stroke="none" fill="#fff"/>
      </g>
      <path id="Path_373" data-name="Path 373" d="M0,0V2.233H9.27V0" transform="translate(4.608 4.68)" fill="none" stroke="#fff" stroke-width="1.25"/>
    </g>
    <g id="Group_123-2" data-name="Group 123" transform="translate(87.66 275.222)">
      <g id="Path_370" data-name="Path 370" transform="translate(-0.599 5.508)" fill="none">
        <path d="M.6-2.514,6.739.388V7.221L.6,4.222Z" stroke="none"/>
        <path d="M 1.848879337310791 -0.5409283638000488 L 1.848879337310791 3.441723823547363 L 5.489479541778564 5.219651222229004 L 5.489479541778564 1.179946899414062 L 1.848879337310791 -0.5409283638000488 M 0.598879337310791 -2.514407157897949 L 6.739479541778564 0.3881931304931641 L 6.739479541778564 7.221193313598633 L 0.598879337310791 4.222362995147705 L 0.598879337310791 -2.514407157897949 Z" stroke="none" fill="#fff"/>
      </g>
      <g id="Path_372" data-name="Path 372" transform="translate(2.549 -0.74)" fill="none">
        <path d="M-2.549,3.775,3.608,6.81,9.651,3.775,3.375.74Z" stroke="none"/>
        <path d="M 3.602392673492432 5.414044380187988 L 6.823564529418945 3.796070337295532 L 3.390960931777954 2.135824203491211 L 0.2343625128269196 3.753379344940186 L 3.602392673492432 5.414044380187988 M 3.607555866241455 6.810282707214355 L -2.548584222793579 3.774892568588257 L 3.374865770339966 0.7395025491714478 L 9.650615692138672 3.774892568588257 L 3.607555866241455 6.810282707214355 Z" stroke="none" fill="#fff"/>
      </g>
      <g id="Path_371" data-name="Path 371" transform="translate(5.542 5.508)" fill="none">
        <path d="M6.657-2.514.6.388V7.221l6.058-3Z" stroke="none"/>
        <path d="M 5.407217025756836 -0.5294556617736816 L 1.848877429962158 1.175374269485474 L 1.848877429962158 5.207700252532959 L 5.407217025756836 3.44635009765625 L 5.407217025756836 -0.5294556617736816 M 6.657217025756836 -2.514407157897949 L 6.657217025756836 4.222362995147705 L 0.5988774299621582 7.221193313598633 L 0.5988774299621582 0.3881931304931641 L 6.657217025756836 -2.514407157897949 Z" stroke="none" fill="#fff"/>
      </g>
      <line id="Line_111" data-name="Line 111" y1="2.08" x2="4.16" transform="translate(4.057 1.969)" fill="none" stroke="#fff" stroke-linecap="round" stroke-width="1.25"/>
    </g>
  </g>
</svg>
