<svg id="tension" xmlns="http://www.w3.org/2000/svg" width="20.322" height="22.507" viewBox="0 0 20.322 22.507">
  <path id="Path_413" data-name="Path 413" d="M71.449,129.337v.485A2.784,2.784,0,0,1,74.23,132.6h.485A3.27,3.27,0,0,0,71.449,129.337Z" transform="translate(-70.247 -124.232)" fill="#107ec2"/>
  <rect id="Rectangle_280" data-name="Rectangle 280" width="0.485" height="4.126" transform="translate(4.251 14.219)" fill="#107ec2"/>
  <rect id="Rectangle_281" data-name="Rectangle 281" width="0.485" height="4.049" transform="translate(6.403 13.004)" fill="#107ec2"/>
  <rect id="Rectangle_282" data-name="Rectangle 282" width="0.485" height="0.728" transform="translate(6.403 17.733)" fill="#107ec2"/>
  <g id="Group_214" data-name="Group 214" transform="translate(9.895 1.557)">
    <path id="Path_414" data-name="Path 414" d="M250.523,65.89v2.245h4.971v1.117a1.3,1.3,0,0,1-1.3,1.3h-1.234a1.424,1.424,0,1,0,0,2.848h3.9a1.659,1.659,0,0,1,0,3.317h-1.808V77.2h1.808a2.144,2.144,0,0,0,0-4.288h-3.9a.939.939,0,1,1,0-1.877H254.2a1.786,1.786,0,0,0,1.784-1.784V68.135h4.971V56.251H250.523Zm9.942,1.759h-9.456V66.376h9.456Zm0-10.913V65.89h-9.456V56.736Z" transform="translate(-250.523 -56.251)" fill="#107ec2"/>
    <path id="Path_415" data-name="Path 415" d="M326.937,87.886h-5.526V92.9h5.526V87.886Zm-.485,4.534H321.9V88.371h4.556Z" transform="translate(-317.97 -86.35)" fill="#107ec2"/>
    <rect id="Rectangle_283" data-name="Rectangle 283" width="0.485" height="1.304" transform="translate(5.189 2.487)" fill="#107ec2"/>
    <rect id="Rectangle_284" data-name="Rectangle 284" width="0.485" height="1.304" transform="translate(5.982 2.487)" fill="#107ec2"/>
    <path id="Path_416" data-name="Path 416" d="M375.749,146.528h.55v.816h.485v-1.3h-1.036Z" transform="translate(-369.67 -141.684)" fill="#107ec2"/>
    <rect id="Rectangle_285" data-name="Rectangle 285" width="0.485" height="1.304" transform="translate(7.422 4.357)" fill="#107ec2"/>
    <path id="Path_417" data-name="Path 417" d="M391.21,107.493h-1.133v1.3h1.133Zm-.485.817h-.162v-.332h.162Z" transform="translate(-383.302 -105.005)" fill="#107ec2"/>
    <rect id="Rectangle_286" data-name="Rectangle 286" width="1.003" height="0.485" transform="translate(4.317 4.93)" fill="#107ec2"/>
    <rect id="Rectangle_287" data-name="Rectangle 287" width="1.721" height="0.485" transform="translate(1.257 2.896)" fill="#107ec2"/>
    <rect id="Rectangle_288" data-name="Rectangle 288" width="1.721" height="0.485" transform="translate(1.257 4.888)" fill="#107ec2"/>
    <rect id="Rectangle_289" data-name="Rectangle 289" width="6.688" height="0.485" transform="translate(2.64 10.519)" fill="#107ec2"/>
    <rect id="Rectangle_290" data-name="Rectangle 290" width="0.837" height="0.485" transform="translate(1.099 10.519)" fill="#107ec2"/>
    <path id="Path_418" data-name="Path 418" d="M406.116,207.251a.725.725,0,1,0,.725.725A.726.726,0,0,0,406.116,207.251Zm0,.964a.239.239,0,1,1,.239-.239A.24.24,0,0,1,406.116,208.215Z" transform="translate(-397.873 -199.921)" fill="#107ec2"/>
    <path id="Path_419" data-name="Path 419" d="M365.321,207.251a.725.725,0,1,0,.725.725A.726.726,0,0,0,365.321,207.251Zm0,.964a.239.239,0,1,1,.239-.239A.24.24,0,0,1,365.321,208.215Z" transform="translate(-359.058 -199.921)" fill="#107ec2"/>
    <rect id="Rectangle_291" data-name="Rectangle 291" width="3.277" height="0.485" transform="translate(1.257 7.472)" fill="#107ec2"/>
    <rect id="Rectangle_292" data-name="Rectangle 292" width="3.277" height="0.485" transform="translate(1.257 8.255)" fill="#107ec2"/>
  </g>
  <path id="Path_420" data-name="Path 420" d="M51.36,44.741h3.014V36.191H49.311v-.885a3.832,3.832,0,0,0-1.231-2.781,2.836,2.836,0,0,1-.909-2.093V28.589A.828.828,0,0,1,48,27.762h2.187a.1.1,0,0,1,.1.1.759.759,0,0,1-.758.758H47.9v.485h1.626a1.238,1.238,0,0,0,.827-.315,1.016,1.016,0,0,0,1.408-.138,1.015,1.015,0,0,0,1.734-.325,1.791,1.791,0,0,1,.191.8v2.73a1.424,1.424,0,0,1-.286.86,2.683,2.683,0,0,0-.553,1.616v1.278h.485V34.337a2.2,2.2,0,0,1,.456-1.325,1.906,1.906,0,0,0,.383-1.151v-2.73a2.285,2.285,0,0,0-.62-1.559V25.846a1.015,1.015,0,0,0-1.57-.853,1.016,1.016,0,0,0-1.769-.451c-.018-.021-.036-.041-.055-.061a1.016,1.016,0,0,0-1.714.511,1.017,1.017,0,0,0-1.57.853v1.075h.485V25.846a.532.532,0,0,1,.532-.532.531.531,0,0,1,.531.532h.485V25.2a.531.531,0,0,1,1.063,0v.467h.485V25.2a.531.531,0,0,1,.907-.375.526.526,0,0,1,.156.375v.645h.485a.532.532,0,0,1,.531-.532.532.532,0,0,1,.532.532V28a.531.531,0,0,1-1.063,0V26.572H51.52V28a.532.532,0,0,1-.872.407,1.237,1.237,0,0,0,.124-.54.587.587,0,0,0-.314-.519V26.173h-.485v1.1H48.909v-.708h-.485v.708H48a1.314,1.314,0,0,0-1.312,1.312v1.844a3.361,3.361,0,0,0,1.063,2.447,3.345,3.345,0,0,1,1.077,2.426v.885h-.559v.754h-.818v7.041h.818v.754h2.605a2.2,2.2,0,0,0,2.179,1.95h7.215v-.485H53.05A1.71,1.71,0,0,1,51.36,44.741Zm-3.427-7.31h3.9V43.5h-3.9Zm.818,6.556h3.566V36.946H48.751v-.269h5.137v7.579H48.751Z" transform="translate(-46.685 -24.184)" fill="#107ec2"/>
</svg>
